<svg width="60" height="58" viewBox="0 0 60 58" fill="none" xmlns="http://www.w3.org/2000/svg">
<path d="M29.9073 0.19165C27.6682 0.19165 25.8528 1.82775 25.8528 3.84611C25.8528 5.86447 27.668 7.50081 29.9073 7.50081C31.4746 7.50081 32.8312 6.69831 33.506 5.52542C39.3559 8.5348 43.6396 18.5193 43.6396 30.1282C43.6396 35.0465 42.8781 39.7582 41.4664 43.8241C41.4331 43.9198 41.4211 44.0205 41.431 44.1203C41.4409 44.2202 41.4725 44.3173 41.524 44.4062C41.5756 44.495 41.646 44.5739 41.7314 44.6382C41.8167 44.7025 41.9153 44.751 42.0214 44.781C42.2361 44.8414 42.4685 44.8225 42.6677 44.7286C42.8669 44.6346 43.0166 44.4732 43.0838 44.2798C44.5478 40.0624 45.3339 35.198 45.3339 30.1282C45.3339 17.7994 40.667 7.13114 33.9528 4.00495C33.9554 3.952 33.962 3.89977 33.962 3.84611C33.962 1.82799 32.1468 0.19165 29.9073 0.19165V0.19165ZM29.9073 1.71877C30.5332 1.71877 31.1336 1.9429 31.5762 2.34186C32.0188 2.74081 32.2675 3.28191 32.2675 3.84611C32.2675 4.41032 32.0188 4.95141 31.5762 5.35037C31.1336 5.74932 30.5332 5.97345 29.9073 5.97345C29.2813 5.97345 28.681 5.74932 28.2384 5.35037C27.7957 4.95141 27.5471 4.41032 27.5471 3.84611C27.5471 3.28191 27.7957 2.74081 28.2384 2.34186C28.681 1.9429 29.2813 1.71877 29.9073 1.71877ZM15.4563 11.9404C10.0116 11.958 5.84883 13.5184 3.8964 16.5667C1.95371 19.5996 2.50899 23.6206 5.24324 27.9187C5.35763 28.0897 5.54176 28.2135 5.75619 28.2636C5.97062 28.3138 6.1983 28.2862 6.39047 28.1869C6.58264 28.0875 6.72401 27.9243 6.78431 27.7322C6.84461 27.5401 6.81905 27.3343 6.71309 27.159C4.25043 23.287 3.77101 19.8173 5.36414 17.3302C7.52678 13.954 13.3535 12.6881 20.9902 13.9419C21.0996 13.9599 21.2119 13.9583 21.3207 13.9371C21.4295 13.916 21.5326 13.8757 21.6241 13.8187C21.7156 13.7616 21.7937 13.6889 21.854 13.6046C21.9143 13.5203 21.9556 13.4261 21.9756 13.3275C21.9955 13.2288 21.9937 13.1276 21.9703 13.0295C21.9468 12.9315 21.9021 12.8386 21.8388 12.7561C21.7755 12.6736 21.6948 12.6032 21.6013 12.5488C21.5078 12.4945 21.4033 12.4572 21.2939 12.4393C19.2287 12.1002 17.2713 11.9347 15.4566 11.9407L15.4563 11.9404ZM44.5694 11.9822C44.3448 11.9796 44.1281 12.0575 43.9672 12.1988C43.8062 12.3401 43.7142 12.5333 43.7112 12.7358C43.7083 12.9383 43.7947 13.1336 43.9515 13.2787C44.1083 13.4237 44.3226 13.5067 44.5473 13.5093C49.3776 13.5661 52.8596 14.9235 54.4259 17.3689C56.5838 20.738 54.8995 25.9037 49.8999 31.2275C49.7548 31.3822 49.6838 31.5825 49.7024 31.7844C49.721 31.9863 49.8278 32.1732 49.9992 32.3042C50.0841 32.369 50.1823 32.4181 50.2883 32.4487C50.3942 32.4792 50.5058 32.4907 50.6167 32.4824C50.7275 32.4741 50.8355 32.4462 50.9344 32.4002C51.0333 32.3543 51.1212 32.2913 51.193 32.2147C56.6022 26.4548 58.4917 20.6613 55.8936 16.6054C53.982 13.6209 49.9405 12.0451 44.5694 11.9822ZM37.4615 12.6765C37.4042 12.677 37.3471 12.6827 37.291 12.6936C32.4 13.6383 27.1936 15.4845 22.1937 18.0864C10.1559 24.3507 2.19421 33.5068 2.80612 40.3373C1.56123 40.9613 0.717773 42.1569 0.717773 43.5319C0.717773 45.55 2.53323 47.1863 4.77251 47.1863C7.01154 47.1863 8.82699 45.5502 8.82699 43.5319C8.82699 41.5135 7.0118 39.8772 4.77251 39.8772C4.67242 39.8772 4.5739 39.8843 4.47538 39.8907C4.21144 33.8133 11.7019 25.3099 23.0408 19.4091C27.8911 16.8853 32.9323 15.0968 37.6459 14.1865C37.8504 14.1463 38.0311 14.0392 38.1533 13.886C38.2755 13.7328 38.3304 13.5442 38.3075 13.3567C38.2846 13.1691 38.1855 12.9959 38.0293 12.8703C37.8731 12.7447 37.6708 12.6756 37.4615 12.6765ZM29.8786 27.4833C29.6798 27.4855 29.4819 27.5058 29.2877 27.5438C27.7041 27.8527 26.6983 29.2592 27.04 30.6869C27.383 32.1143 28.9434 33.0213 30.5271 32.7128C32.1107 32.4037 33.117 30.9972 32.7748 29.5698C32.4748 28.3209 31.2428 27.47 29.8786 27.4833ZM10.2062 31.8666C10.095 31.8618 9.98377 31.8768 9.87899 31.9109C9.7742 31.9449 9.67791 31.9972 9.59563 32.0649C9.51334 32.1324 9.44659 32.2138 9.39922 32.3045C9.35184 32.3952 9.32476 32.4934 9.31952 32.5936C9.31429 32.6937 9.331 32.7938 9.36871 32.8881C9.40641 32.9825 9.46437 33.0692 9.53926 33.1433C12.8799 36.4521 17.2196 39.5562 22.1689 42.1315C33.7976 48.1833 46.1544 49.9307 52.6218 46.4983C53.3091 46.9459 54.1356 47.1868 54.9835 47.1866C57.2228 47.1866 59.038 45.5505 59.038 43.5321C59.038 41.5137 57.2231 39.8774 54.9835 39.8774C52.7445 39.8774 50.9291 41.5137 50.9291 43.5321C50.9291 44.1874 51.1232 44.8009 51.4585 45.3327C45.5454 48.2151 33.9915 46.5203 23.0161 40.8088C18.2146 38.3102 14.0126 35.3051 10.7926 32.1157C10.7179 32.0414 10.6276 31.9812 10.527 31.9385C10.4264 31.8957 10.3173 31.8713 10.2062 31.8666ZM4.77251 41.4045C5.08246 41.4045 5.38937 41.4595 5.67572 41.5665C5.96207 41.6734 6.22226 41.8301 6.44142 42.0276C6.66059 42.2251 6.83444 42.4597 6.95305 42.7178C7.07166 42.9759 7.13271 43.2525 7.13271 43.5319C7.13271 43.8112 7.07166 44.0879 6.95305 44.346C6.83444 44.6041 6.66059 44.8386 6.44142 45.0361C6.22226 45.2337 5.96207 45.3904 5.67572 45.4973C5.38937 45.6042 5.08246 45.6592 4.77251 45.6592C4.46257 45.6592 4.15566 45.6042 3.86931 45.4973C3.58295 45.3904 3.32277 45.2337 3.1036 45.0361C2.88444 44.8386 2.71059 44.6041 2.59198 44.346C2.47337 44.0879 2.41232 43.8112 2.41232 43.5319C2.41232 43.2525 2.47337 42.9759 2.59198 42.7178C2.71059 42.4597 2.88444 42.2251 3.1036 42.0276C3.32277 41.8301 3.58295 41.6734 3.86931 41.5665C4.15566 41.4595 4.46257 41.4045 4.77251 41.4045ZM54.9835 41.4045C55.2935 41.4045 55.6004 41.4595 55.8867 41.5665C56.1731 41.6734 56.4333 41.8301 56.6525 42.0276C56.8716 42.2251 57.0455 42.4597 57.1641 42.7178C57.2827 42.9759 57.3437 43.2525 57.3437 43.5319C57.3437 43.8112 57.2827 44.0879 57.1641 44.346C57.0455 44.6041 56.8716 44.8386 56.6525 45.0361C56.4333 45.2337 56.1731 45.3904 55.8867 45.4973C55.6004 45.6042 55.2935 45.6592 54.9835 45.6592C54.4157 45.6597 53.8669 45.4746 53.4389 45.1383C53.4323 45.1288 53.4286 45.1186 53.4215 45.1091C53.3552 45.0217 53.2693 44.9478 53.1694 44.8921C52.8827 44.5814 52.7002 44.2035 52.6431 43.8027C52.586 43.4019 52.6568 42.9947 52.8471 42.6288C53.0375 42.2629 53.3395 41.9534 53.7178 41.7366C54.0962 41.5198 54.5352 41.4046 54.9835 41.4045ZM18.0937 44.6525C17.954 44.6454 17.8146 44.6696 17.6879 44.7229C17.5611 44.7762 17.451 44.857 17.3673 44.958C17.2837 45.059 17.2291 45.1771 17.2084 45.3018C17.1877 45.4265 17.2016 45.5538 17.2489 45.6725C20.0772 52.791 24.7046 57.1739 29.9073 57.1739C33.702 57.1739 37.2131 54.8419 39.9507 50.7373C40.0081 50.6513 40.0461 50.556 40.0625 50.4569C40.079 50.3577 40.0736 50.2566 40.0467 50.1593C40.0198 50.062 39.9719 49.9704 39.9057 49.8898C39.8395 49.8092 39.7564 49.7411 39.661 49.6895C39.4683 49.5852 39.2376 49.5542 39.0195 49.6032C38.8015 49.6521 38.6139 49.7771 38.498 49.9507C36.0377 53.6396 33.0158 55.6465 29.9073 55.6465C25.5854 55.6465 21.4582 51.7373 18.8439 45.1573C18.7877 45.016 18.6866 44.8928 18.5531 44.803C18.4197 44.7132 18.2599 44.6609 18.0937 44.6525Z" fill="#636363"/>
</svg>
