<svg width="65" height="34" viewBox="0 0 65 34" fill="none" xmlns="http://www.w3.org/2000/svg">
<path d="M64.1218 32.7514C63.2017 33.0651 62.1861 33.0644 61.2665 32.7495C60.3469 32.4346 59.587 31.8272 59.1301 31.042L50.0423 19.7144L48.7253 18.1308L38.1808 31.0562C37.7514 31.8085 37.0327 32.3941 36.1591 32.7035C35.2855 33.0128 34.3168 33.0248 33.4341 32.7372L47.021 16.3073L34.3823 1.46583C35.2911 1.17065 36.285 1.16674 37.1966 1.45475C38.1082 1.74276 38.8818 2.30511 39.3872 3.04709L48.8069 14.5148L58.2793 3.09457C58.712 2.35567 59.4309 1.78585 60.2993 1.49344C61.1676 1.20103 62.1249 1.20641 62.9891 1.50857L58.0844 7.37536L51.4411 15.1701C51.2566 15.3184 51.1089 15.5002 51.0079 15.7036C50.9068 15.9069 50.8545 16.1272 50.8545 16.3501C50.8545 16.5729 50.9068 16.7932 51.0079 16.9966C51.1089 17.1999 51.2566 17.3817 51.4411 17.5301L64.0955 32.7538L64.1218 32.7514ZM0.907644 16.1031L2.01398 11.1766C5.05379 1.43497 17.4448 -2.61789 25.9689 3.41272C30.9606 6.948 32.2065 11.9529 31.9616 17.5942H3.84208C3.38637 27.6682 11.4521 33.751 21.7648 30.6431C23.4366 30.1007 24.933 29.193 26.12 28.0013C27.307 26.8096 28.1475 25.3711 28.5662 23.8147C29.1114 22.2335 30.0097 21.9628 31.6586 22.4187C31.3839 24.3475 30.6274 26.195 29.4461 27.8223C28.2649 29.4496 26.6896 30.8142 24.8388 31.8136C21.7817 33.3209 18.2741 33.9183 14.8176 33.5204C11.361 33.1225 8.13257 31.7498 5.59379 29.5984C3.08352 27.0518 1.56638 23.8349 1.27379 20.4385C1.27379 19.8806 1.06306 19.3582 0.920814 18.8573C0.907991 17.9401 0.901845 17.0228 0.902375 16.1055L0.907644 16.1031ZM3.87632 15.4241H29.3064C29.1483 8.12088 24.0354 2.94025 17.2156 2.89276C9.62403 2.79779 4.19242 7.86446 3.85789 15.3909L3.87632 15.4241Z" fill="#636363"/>
</svg>
