<svg width="47" height="58" viewBox="0 0 47 58" fill="none" xmlns="http://www.w3.org/2000/svg">
<path d="M1.92654 37.4016L8.15624 1.28706C8.20092 1.01917 8.33826 0.770822 8.54869 0.577398C8.75912 0.383974 9.03191 0.255341 9.32819 0.209824C9.62447 0.164307 9.92913 0.204229 10.1988 0.323901C10.4684 0.443574 10.6893 0.636893 10.8299 0.876316L17.5285 12.2038L1.92654 37.4016ZM46.164 46.1673L40.2372 12.928C40.1966 12.6931 40.0843 12.473 39.9129 12.2923C39.7415 12.1116 39.5177 11.9774 39.2666 11.9047C39.0154 11.8321 38.7468 11.8238 38.4907 11.8808C38.2347 11.9378 38.0012 12.0579 37.8165 12.2276L0.414551 46.1697L21.1082 56.6805C21.7469 57.0039 22.4672 57.1738 23.1997 57.1738C23.9323 57.1738 24.6526 57.0039 25.2912 56.6805L46.164 46.1673ZM29.3478 17.1612L24.5537 8.89412C24.4327 8.68623 24.251 8.51211 24.0281 8.39063C23.8052 8.26915 23.5497 8.20494 23.2893 8.20494C23.0288 8.20494 22.7734 8.26915 22.5505 8.39063C22.3276 8.51211 22.1459 8.68623 22.0249 8.89412L0.978253 42.8909L29.3478 17.1612Z" fill="#636363"/>
</svg>
