<svg width="64" height="58" viewBox="0 0 64 58" fill="none" xmlns="http://www.w3.org/2000/svg">
<path d="M31.8781 0.447388C14.4927 0.447388 0.268311 13.2684 0.268311 28.9385C0.268311 44.6086 14.4927 57.4296 31.8781 57.4296C49.2634 57.4296 63.4878 44.6086 63.4878 28.9385C63.4878 13.2684 49.2634 0.447388 31.8781 0.447388ZM31.8781 6.55161C40.2309 6.55161 47.459 10.2151 51.974 15.7115L48.5864 18.3588C44.7485 13.6768 38.6504 10.6235 31.8781 10.6235C23.0721 10.6235 15.6227 15.7115 12.6857 22.8343L38.6504 46.2374C45.1989 44.2026 50.1696 39.1146 51.7501 33.008H40.9105V28.9385H56.7154C56.7154 39.5206 48.3599 48.4739 37.2965 50.7105L7.72294 24.057C10.2043 14.0828 20.1377 6.54923 31.8781 6.54923V6.55161ZM7.0407 29.3445L31.6542 51.3254C25.3322 51.1212 19.0076 49.0865 14.2662 44.8128C9.5247 40.5391 7.0407 34.8385 7.0407 29.3445Z" fill="#636363"/>
</svg>
