<svg width="65" height="58" viewBox="0 0 65 58" fill="none" xmlns="http://www.w3.org/2000/svg">
<path d="M62.9266 26.1431L35.3231 1.2653C33.732 -0.166395 31.1558 -0.166395 29.5595 1.2653L23.8407 6.42937L31.111 12.9824C32.8101 12.4719 34.7436 12.8162 36.087 14.0295C37.4462 15.2522 37.8203 17.0163 37.2408 18.5406L44.2424 24.8562C45.9414 24.3267 47.896 24.671 49.2473 25.889C51.1466 27.5985 51.1466 30.3622 49.2473 32.0716C47.3534 33.7788 44.2924 33.7788 42.3985 32.0716C40.9787 30.7872 40.623 28.8972 41.3343 27.3326L34.7778 21.4538V36.946C35.2414 37.1502 35.6787 37.428 36.0633 37.7723C37.9414 39.4842 37.9414 42.2431 36.0633 43.9454C34.1693 45.6573 31.0873 45.6573 29.1907 43.9454C27.2968 42.2383 27.2968 39.4842 29.1907 37.7771C29.6701 37.3497 30.2102 37.0268 30.7844 36.8131V21.1689C30.2128 20.9529 29.6675 20.6418 29.2039 20.2168C27.7683 18.9229 27.4232 17.0306 28.1608 15.4469L21.0169 8.97698L2.08772 26.0267C0.507218 27.4632 0.507218 29.7876 2.08772 31.224L29.6939 56.0994C31.2849 57.5335 33.8611 57.5335 35.4522 56.0994L62.9266 31.3356C64.5203 29.9039 64.5203 27.5795 62.9266 26.1431Z" fill="#636363"/>
</svg>
