<svg width="64" height="65" viewBox="0 0 64 65" fill="none" xmlns="http://www.w3.org/2000/svg">
<path d="M31.881 0.148193C30.2023 0.148193 28.5923 0.749271 27.4053 1.8192C26.2182 2.88912 25.5514 4.34025 25.5514 5.85335C25.5514 7.36646 26.2182 8.81758 27.4053 9.88751C28.5923 10.9574 30.2023 11.5585 31.881 11.5585C33.5597 11.5585 35.1697 10.9574 36.3568 9.88751C37.5438 8.81758 38.2107 7.36646 38.2107 5.85335C38.2107 4.34025 37.5438 2.88912 36.3568 1.8192C35.1697 0.749271 33.5597 0.148193 31.881 0.148193V0.148193ZM57.1582 13.3033C55.4794 13.3033 53.8695 13.9044 52.6824 14.9743C51.4954 16.0442 50.8285 17.4953 50.8285 19.0084C50.8285 20.5215 51.4954 21.9727 52.6824 23.0426C53.8695 24.1125 55.4794 24.7136 57.1582 24.7136C58.8369 24.7136 60.4469 24.1125 61.6339 23.0426C62.8209 21.9727 63.4878 20.5215 63.4878 19.0084C63.4878 17.4953 62.8209 16.0442 61.6339 14.9743C60.4469 13.9044 58.8369 13.3033 57.1582 13.3033ZM57.1582 39.6134C55.4794 39.6134 53.8695 40.2145 52.6824 41.2844C51.4954 42.3544 50.8285 43.8055 50.8285 45.3186C50.8285 46.8317 51.4954 48.2828 52.6824 49.3528C53.8695 50.4227 55.4794 51.0238 57.1582 51.0238C58.8369 51.0238 60.4469 50.4227 61.6339 49.3528C62.8209 48.2828 63.4878 46.8317 63.4878 45.3186C63.4878 43.8055 62.8209 42.3544 61.6339 41.2844C60.4469 40.2145 58.8369 39.6134 57.1582 39.6134ZM31.881 52.7685C30.2027 52.7685 28.5931 53.3695 27.4063 54.4391C26.2196 55.5088 25.5529 56.9596 25.5529 58.4723C25.5529 59.9851 26.2196 61.4359 27.4063 62.5056C28.5931 63.5752 30.2027 64.1762 31.881 64.1762C33.5594 64.1762 35.1689 63.5752 36.3557 62.5056C37.5425 61.4359 38.2092 59.9851 38.2092 58.4723C38.2092 56.9596 37.5425 55.5088 36.3557 54.4391C35.1689 53.3695 33.5594 52.7685 31.881 52.7685ZM6.59796 39.6161C5.76693 39.6161 4.94404 39.7636 4.17627 40.0503C3.4085 40.3369 2.71089 40.7571 2.12327 41.2867C1.53564 41.8164 1.06951 42.4452 0.751493 43.1372C0.433473 43.8292 0.26979 44.5709 0.26979 45.3199C0.26979 46.069 0.433473 46.8107 0.751493 47.5027C1.06951 48.1947 1.53564 48.8235 2.12327 49.3531C2.71089 49.8828 3.4085 50.3029 4.17627 50.5896C4.94404 50.8762 5.76693 51.0238 6.59796 51.0238C8.27668 51.0238 9.88665 50.4227 11.0737 49.3528C12.2607 48.2828 12.9276 46.8317 12.9276 45.3186C12.9276 43.8055 12.2607 42.3544 11.0737 41.2844C9.88665 40.2145 8.27668 39.6134 6.59796 39.6134V39.6161ZM6.59796 13.3033C4.91923 13.3033 3.30926 13.9044 2.12222 14.9743C0.935182 16.0442 0.268311 17.4953 0.268311 19.0084C0.268311 20.5215 0.935182 21.9727 2.12222 23.0426C3.30926 24.1125 4.91923 24.7136 6.59796 24.7136C8.27668 24.7136 9.88665 24.1125 11.0737 23.0426C12.2607 21.9727 12.9276 20.5215 12.9276 19.0084C12.9276 17.4953 12.2607 16.0442 11.0737 14.9743C9.88665 13.9044 8.27668 13.3033 6.59796 13.3033ZM31.881 4.29134L5.09731 18.2281V46.1016L31.881 60.0384L58.6588 46.1016V18.2281L31.881 4.29134ZM31.881 8.56254L54.5535 43.9647H9.20263L31.881 8.56254ZM27.7757 9.5523L8.10748 40.2644V19.7914L27.7757 9.5523ZM35.9863 9.5523L55.6575 19.7914V40.2644L35.9863 9.5523ZM12.2069 46.6752H51.5522L31.881 56.909L12.2069 46.6752Z" fill="#636363"/>
</svg>
