<svg width="64" height="58" viewBox="0 0 64 58" fill="none" xmlns="http://www.w3.org/2000/svg">
<path d="M0.268311 0.746216H63.4878V57.7284H0.268311V0.746216ZM58.3091 44.1382C57.8481 41.5384 55.97 39.3541 50.3987 37.3169C48.46 36.4978 46.3053 35.928 45.6652 34.6103C45.4255 33.8268 45.3886 33.3994 45.544 32.9364C45.9391 31.4027 47.9542 30.9421 49.5347 31.3694C50.562 31.6543 51.5103 32.3666 52.1057 33.5063C54.8294 31.9013 54.8294 31.9013 56.7286 30.8352C56.0174 29.838 55.6644 29.4083 55.185 28.9833C53.5255 27.3094 51.3154 26.4547 47.7198 26.5283L45.8627 26.7396C44.0821 27.1314 42.3857 27.9861 41.3583 29.1257C38.3554 32.1909 39.2221 37.533 42.8572 39.7411C46.4528 42.1628 51.7105 42.6946 52.3822 44.9763C53.0144 47.7542 50.0905 48.6445 47.2035 48.324C45.0672 47.8966 43.8845 46.9327 42.5806 45.152L37.7601 47.6473C38.3133 48.787 38.9455 49.2832 39.8938 50.2804C44.4772 54.4496 55.9357 54.2359 57.993 47.8966C58.0694 47.683 58.6252 46.2228 58.1879 43.9791L58.3091 44.1382V44.1382ZM34.6465 26.9367H28.725C28.725 31.538 28.7013 36.1108 28.7013 40.7193C28.7013 43.6443 28.8672 46.3296 28.3378 47.1559C27.4685 48.7917 25.2295 48.5828 24.2127 48.2955C23.1696 47.8302 22.6401 47.1891 22.0264 46.2655C21.8604 46.0162 21.7366 45.8002 21.6918 45.8002L16.8845 48.4712C17.6879 49.967 18.8601 51.2538 20.3721 52.073C22.6243 53.2838 25.6509 53.6756 28.8198 53.0345C30.8823 52.498 32.6604 51.3939 33.5903 49.6845C34.9337 47.4764 34.6492 44.7697 34.636 41.7402C34.6676 36.8635 34.636 31.9844 34.636 27.0696L34.6465 26.9367V26.9367Z" fill="#636363"/>
</svg>
