<svg width="29" height="58" viewBox="0 0 29 58" fill="none" xmlns="http://www.w3.org/2000/svg">
<path d="M27.9275 23.1402C24.5979 9.89178 16.7271 5.53739 15.8815 3.87304C15.144 2.93758 14.4854 1.60799 13.9454 0.454102C13.8506 1.62936 13.8006 2.08047 12.5678 3.26523C10.6633 4.60906 0.877438 12.0073 0.081926 27.0553C-0.660903 41.0919 11.3297 49.4564 12.9576 50.5225L13.142 50.6412C13.481 52.9009 13.7708 55.1664 14.0113 57.4363H15.2783C15.5786 54.9861 16.0264 52.5549 16.6217 50.1474C17.7202 49.4446 18.2128 49.0481 18.8608 48.502C21.9294 45.9432 24.3682 42.8325 26.0194 39.3709C27.6705 35.9093 28.4974 32.1739 28.4464 28.4063C28.4727 26.4736 28.1751 24.4602 27.9275 23.1402ZM13.8717 42.5972C13.8717 42.5972 13.8717 22.9122 14.5961 22.9146C15.1571 22.9146 15.8868 48.3073 15.8868 48.3073C14.8832 48.2005 13.8717 44.1286 13.8717 42.5972Z" fill="#636363"/>
</svg>
