<svg width="64" height="58" viewBox="0 0 64 58" fill="none" xmlns="http://www.w3.org/2000/svg">
<path d="M30.9956 0.148193C30.5312 0.148193 30.1795 0.15128 30.0515 0.164101C29.9156 0.176685 29.4828 0.213961 29.0937 0.241977C20.1144 0.971594 11.7037 5.33789 6.37665 12.0488C3.41032 15.7805 1.51319 20.0128 0.796697 24.4964C0.54329 26.0611 0.512207 26.5234 0.512207 28.6453C0.512207 30.7671 0.543817 31.2294 0.796697 32.7945C2.51417 43.493 10.9622 52.4818 22.4198 55.812C24.4715 56.4082 26.6345 56.8147 29.094 57.0597C30.0518 57.1546 34.1921 57.1546 35.1499 57.0597C39.3954 56.6363 42.9924 55.6897 46.5393 54.0579C47.0832 53.8072 47.1883 53.7404 47.1143 53.6844C47.0648 53.6514 44.747 50.85 41.9664 47.4638L36.9114 41.3097L30.577 32.8613C27.0917 28.2162 24.2242 24.4183 24.1994 24.4183C24.1747 24.4121 24.1502 28.1666 24.1375 32.7497C24.1199 40.7752 24.113 41.0981 24.0016 41.2876C23.8409 41.5606 23.7171 41.6717 23.4579 41.7943C23.2604 41.883 23.087 41.8999 22.154 41.8999H21.0845L20.8006 41.7385C20.6245 41.639 20.4814 41.4986 20.3865 41.332L20.2566 41.0812L20.2706 29.915L20.2882 18.7431L20.4795 18.5258C20.5785 18.4088 20.7887 18.2587 20.9368 18.1863C21.1902 18.0747 21.2892 18.0636 22.3581 18.0636C23.6191 18.0636 23.8291 18.108 24.1565 18.4309C24.2495 18.5204 27.6792 23.1763 31.7824 28.7846C35.937 34.4611 40.094 40.1361 44.2536 45.8096L49.2591 52.6433L49.5119 52.493C51.7557 51.1786 54.1283 49.3072 56.007 47.3581C60.0054 43.22 62.5827 38.1744 63.4477 32.7943C63.7009 31.2294 63.7317 30.7667 63.7317 28.6453C63.7317 26.5234 63.7001 26.0611 63.4477 24.496C61.7297 13.7975 53.282 4.80867 41.8246 1.4785C39.8037 0.888019 37.6532 0.481305 35.2432 0.236279C34.798 0.194492 32.3891 0.14938 30.9961 0.148431L30.9956 0.148193ZM41.7127 17.2834C42.6275 17.2834 42.788 17.296 42.9921 17.395C43.289 17.5284 43.5295 17.7848 43.6164 18.0519C43.6654 18.1968 43.678 21.2935 43.6654 28.2718L43.6478 38.2853L41.689 35.5786L39.7236 32.8719V25.5924C39.7236 20.8866 39.7481 18.2409 39.7853 18.1129C39.8841 17.8012 40.1003 17.5559 40.3972 17.4113C40.6503 17.2941 40.7431 17.2831 41.7135 17.2831L41.7127 17.2834Z" fill="#636363"/>
</svg>
