<svg width="64" height="66" viewBox="0 0 64 66" fill="none" xmlns="http://www.w3.org/2000/svg">
<path d="M32.1175 65.1504C31.164 65.1504 30.2135 64.9255 29.3788 64.4891L20.6576 59.8385C19.3566 59.1825 19.9922 58.9496 20.42 58.813C22.1577 58.2695 22.5082 58.1437 24.3647 57.1959C24.5578 57.0969 24.8132 57.1343 25.0122 57.2414L31.7135 60.8264C31.9571 60.9469 32.2987 60.9469 32.5215 60.8264L58.6463 47.2361C58.8899 47.1103 59.0444 46.8586 59.0444 46.5989V19.4237C59.0444 19.1587 58.8869 18.9097 58.6374 18.7758L32.5244 5.19625C32.2838 5.07042 31.963 5.07042 31.7195 5.19625L5.61242 18.7785C5.35994 18.9097 5.19953 19.1667 5.19953 19.4237V46.5989C5.19953 46.8586 5.35994 47.105 5.61242 47.2281L12.7682 50.955C16.6505 52.706 19.0298 50.6444 19.0298 48.5722V21.7423C19.0298 21.3621 19.3684 21.065 19.7902 21.065H23.1023C23.5152 21.065 23.8597 21.3648 23.8597 21.7423V48.5722C23.8597 53.2441 21.0378 55.9215 16.1247 55.9215C14.6158 55.9215 13.4246 55.9215 10.1067 54.4463L3.25094 50.8934C1.5578 50.0126 0.512207 48.3633 0.512207 46.5989V19.4237C0.512207 17.6594 1.56077 16.0101 3.25094 15.1319L29.3758 1.52559C31.0303 0.682224 33.2255 0.682224 34.8651 1.52559L60.987 15.1319C62.6802 16.0128 63.7317 17.6594 63.7317 19.4237V46.5989C63.7317 48.3633 62.6802 50.0072 60.987 50.8934L34.8651 64.4891C34.0334 64.9255 33.0859 65.1504 32.1175 65.1504ZM53.2105 38.358C53.2105 33.271 49.3964 31.9163 41.3674 30.9605C33.2552 29.994 32.4294 29.4933 32.4294 27.7825C32.4294 26.3688 33.1274 24.4813 39.1366 24.4813C44.5042 24.4813 46.4825 25.5228 47.2963 28.7838C47.3676 29.0917 47.6795 29.3166 48.03 29.3166H51.4193C51.6302 29.3166 51.8292 29.2336 51.9718 29.0997C52.1144 28.9551 52.1916 28.7704 52.1708 28.575C51.645 22.9579 47.5043 20.3394 39.1366 20.3394C31.6868 20.3394 27.243 23.172 27.243 27.9244C27.243 33.0783 31.663 34.5026 38.8128 35.1398C47.3676 35.8949 48.03 37.022 48.03 38.5374C48.03 41.1693 45.6864 42.2911 40.1822 42.2911C33.27 42.2911 31.7492 40.7275 31.2382 37.6271C31.1788 37.2951 30.864 37.0515 30.4867 37.0515H27.1094C26.6905 37.0515 26.3549 37.3513 26.3549 37.7288C26.3549 41.6967 28.749 46.4249 40.1822 46.4249C48.4637 46.4276 53.2105 43.4905 53.2105 38.358Z" fill="#636363"/>
</svg>
