<svg width="65" height="52" viewBox="0 0 65 52" fill="none" xmlns="http://www.w3.org/2000/svg">
<path d="M38.3862 25.8282C38.3862 27.2358 37.766 28.5858 36.662 29.5813C35.558 30.5768 34.0606 31.1364 32.4989 31.1371C30.9368 31.1371 29.4387 30.5777 28.3341 29.5821C27.2295 28.5865 26.609 27.2362 26.609 25.8282C26.609 24.4206 27.2292 23.0707 28.3332 22.0751C29.4372 21.0796 30.9346 20.52 32.4963 20.5194C34.0584 20.5194 35.5565 21.0787 36.6611 22.0743C37.7657 23.0699 38.3862 24.4202 38.3862 25.8282V25.8282ZM45.3615 0.447388C41.8159 0.447388 37.1772 2.72668 32.4857 6.6727C27.797 2.74805 23.1556 0.494873 19.6127 0.494873C18.5327 0.494873 17.5501 0.715679 16.6993 1.15492C13.0774 3.03771 12.266 8.9045 14.1363 16.2671C6.11795 18.4989 0.902344 22.0674 0.902344 25.8282C0.902344 29.6033 6.14429 33.1813 14.1863 35.3965C12.3319 42.7876 13.159 48.6639 16.7889 50.5443C17.6318 50.9883 18.6064 51.1972 19.6917 51.1972C23.2346 51.1972 27.876 48.9179 32.5674 44.9671C37.2562 48.8942 41.8976 51.1473 45.4405 51.1473C46.5205 51.1473 47.503 50.9337 48.3538 50.4944C51.9732 48.614 52.7871 42.7472 50.9169 35.3822C58.9062 33.1694 64.1218 29.5938 64.1218 25.8282C64.1218 22.0532 58.8799 18.4751 50.8378 16.2552C52.6923 8.87126 51.8652 2.99022 48.2353 1.10743C47.3976 0.670568 46.423 0.449762 45.3588 0.447388H45.3615ZM45.3483 3.03533V3.04958C45.941 3.04958 46.4177 3.15404 46.8181 3.35111C48.5725 4.25807 49.3337 7.70787 48.7411 12.1454C48.5988 13.2375 48.367 14.389 48.0825 15.5643C45.5537 15.004 42.7984 14.5742 39.8982 14.2964C38.1597 12.1477 36.3553 10.1961 34.5377 8.48663C38.7313 4.97273 42.6694 3.04483 45.3509 3.03771L45.3483 3.03533ZM19.6127 3.08282C22.2784 3.08282 26.2349 5.00122 30.439 8.49613C28.632 10.2056 26.8302 12.1454 25.118 14.2941C22.202 14.5719 19.4441 15.0016 16.9179 15.5714C16.6229 14.408 16.4043 13.2826 16.2489 12.2C15.643 7.76486 16.3911 4.31743 18.1297 3.39859C18.6301 3.18491 19.1833 3.09706 19.6127 3.08519V3.08282ZM32.4726 10.3243C33.6711 11.4355 34.8697 12.6796 36.055 14.0377C34.896 13.9902 33.7106 13.9569 32.5121 13.9569C31.3004 13.9569 30.1018 13.9807 28.9297 14.0377C30.0887 12.6796 31.2872 11.4355 32.4726 10.3219V10.3243ZM32.5121 16.5591C34.4614 16.5591 36.4027 16.6398 38.3125 16.7799C39.3819 18.1617 40.4251 19.6362 41.4287 21.196C42.4086 22.7156 43.2989 24.2588 44.1102 25.8164C43.2989 27.3715 42.4086 28.9266 41.4418 30.4462C40.4409 32.0132 39.4056 33.5042 38.3336 34.886C36.4159 35.0356 34.4719 35.1187 32.5121 35.1187C30.5628 35.1187 28.6215 35.0356 26.7117 34.8979C25.6422 33.5161 24.5991 32.0393 23.5955 30.4818C22.6156 28.9622 21.7253 27.419 20.9139 25.8615C21.7121 24.3016 22.6156 22.7441 23.5823 21.2222C24.5833 19.6552 25.6185 18.1689 26.6906 16.787C28.6083 16.6351 30.5523 16.5544 32.5121 16.5544V16.5591ZM22.937 17.1622C22.3048 18.0573 21.6726 18.9737 21.0825 19.9163C20.4898 20.8423 19.9367 21.773 19.4099 22.7037C18.7118 21.1462 18.1191 19.5934 17.6292 18.081C19.315 17.7249 21.0931 17.4091 22.937 17.1646V17.1622ZM42.0609 17.1622C43.8916 17.4067 45.6565 17.7083 47.345 18.081C46.8708 19.5815 46.2781 21.1248 45.6064 22.6705C45.0796 21.7445 44.5264 20.8114 43.9206 19.8831C43.3279 18.9524 42.6957 18.0454 42.0635 17.1622H42.0609ZM50.1293 18.7648C51.4042 19.1209 52.6159 19.5174 53.7512 19.9472C58.3135 21.7041 61.2638 24.0024 61.2638 25.8259C61.2506 27.6493 58.3004 29.9571 53.738 31.7021C52.6317 32.1295 51.42 32.5141 50.1688 32.8727C49.4312 30.5981 48.4671 28.2286 47.2712 25.7974C48.4566 23.3827 49.4049 21.0251 50.1293 18.7601V18.7648ZM14.8449 18.7743C15.5772 21.0536 16.5439 23.4207 17.7424 25.8496C16.5571 28.2642 15.6035 30.6219 14.8818 32.8869C13.6068 32.5308 12.3951 32.1319 11.273 31.6998C6.71063 29.9499 3.76039 27.6493 3.76039 25.8259C3.76039 24.0024 6.71063 21.6899 11.273 19.9472C12.3793 19.5198 13.591 19.1352 14.8449 18.7743V18.7743ZM45.6064 28.9361C46.3045 30.496 46.8972 32.0512 47.3871 33.5612C45.7013 33.9339 43.9206 34.2497 42.0767 34.4872C42.7089 33.5968 43.3411 32.678 43.9337 31.7378C44.5264 30.8118 45.0796 29.8668 45.6091 28.9361H45.6064ZM19.4099 28.9836C19.9367 29.9143 20.4898 30.8427 21.0957 31.7734C21.7016 32.6993 22.3206 33.6063 22.9528 34.4872C21.122 34.245 19.3572 33.9411 17.6687 33.5707C18.1428 32.0749 18.7381 30.5269 19.4072 28.9812L19.4099 28.9836ZM48.1062 36.0755C48.4013 37.246 48.6331 38.3738 48.7753 39.4541C49.3812 43.8892 48.6331 47.3366 46.8945 48.2579C46.5073 48.4715 46.0042 48.5618 45.4115 48.5618C42.7457 48.5618 38.7893 46.6457 34.5852 43.1485C36.3922 41.439 38.1939 39.5016 39.9061 37.3553C42.8221 37.0751 45.5801 36.643 48.1062 36.0732V36.0755ZM16.9443 36.0993C19.4731 36.6549 22.2284 37.0846 25.1286 37.3624C26.8671 39.5111 28.6715 41.4627 30.4891 43.1698C26.2876 46.6909 22.3443 48.6188 19.6627 48.6188C19.0832 48.6069 18.5933 48.5 18.206 48.3053C16.4517 47.4031 15.6904 43.951 16.2831 39.5135C16.4254 38.4213 16.6572 37.2722 16.9417 36.0993H16.9443ZM28.956 37.6188C30.115 37.6663 31.3004 37.6995 32.4989 37.6995C33.7106 37.6995 34.9092 37.6758 36.0814 37.6188C34.9223 38.9769 33.7238 40.2186 32.5384 41.3345C31.3399 40.2186 30.1414 38.9769 28.956 37.6188Z" fill="#636363"/>
</svg>
