<svg width="65" height="55" viewBox="0 0 65 55" fill="none" xmlns="http://www.w3.org/2000/svg">
<path d="M44.718 38.2027C47.0097 38.0247 48.7824 36.2084 48.6691 34.0384C48.5453 31.8683 46.5724 30.1256 44.1675 30.1256H44.0068C42.8133 30.164 41.6856 30.628 40.8716 31.4156C40.0575 32.2032 39.6238 33.2499 39.6658 34.3256C39.7448 35.4629 40.2611 36.3888 40.967 37.0631C38.2065 41.9018 34.063 45.4584 27.7833 48.4475C23.5609 50.4371 19.1013 51.1874 14.7603 50.6555C11.1305 50.1926 8.29097 48.7324 6.55246 46.3843C3.94996 42.8253 3.71289 38.9862 5.88076 35.1447C7.46122 32.3669 9.82928 30.3417 11.4097 29.3445C10.9326 28.1521 10.5627 26.927 10.3034 25.6811C-1.38409 33.2264 -0.193481 43.54 3.35729 48.4143C6.00193 51.9709 11.4097 54.2454 17.3286 54.2454C18.909 54.2454 20.5685 54.1409 22.1832 53.7848C32.4483 52.0065 40.2216 46.4579 44.6811 38.2763L44.718 38.2027ZM58.8052 29.3089C52.694 22.832 43.6907 19.2754 33.4282 19.2754H32.0848C31.4184 17.9601 29.8801 17.141 28.1389 17.141H28.0204C25.5364 17.141 23.6004 19.0641 23.682 21.303C23.7611 23.4351 25.7735 25.2157 28.1811 25.2157H28.376C29.2299 25.186 30.0564 24.9354 30.7565 24.4937C31.4567 24.0521 32.001 23.4381 32.3245 22.7252H33.7865C39.8686 22.7252 45.6267 24.3254 50.8765 27.4546C54.8988 29.8407 57.7831 32.97 59.4031 36.707C60.8203 39.765 60.7439 42.7541 59.2846 45.2471C57.0324 49.1574 53.2419 51.223 48.2319 51.223C45.0736 51.223 41.997 50.3326 40.4165 49.694C39.4682 50.4015 37.8878 51.5767 36.7445 52.289C40.2163 53.7088 43.7302 54.5279 47.1229 54.5279C54.8198 54.5279 60.541 50.6175 62.7142 46.8449C65.0796 42.5761 64.8847 35.3917 58.842 29.2377L58.8052 29.3089ZM17.9976 39.4801C18.0767 41.6145 20.0865 43.3928 22.4967 43.3928H22.6547C23.2479 43.3807 23.8323 43.2618 24.3737 43.043C24.9151 42.8242 25.4024 42.5099 25.8069 42.1187C26.2115 41.7276 26.525 41.2674 26.7292 40.7653C26.9334 40.2632 27.024 39.7293 26.9957 39.1952C26.9957 37.0584 24.9438 35.2848 22.5362 35.2848H22.3781C22.2201 35.2848 21.983 35.2848 21.7828 35.3537C18.5087 30.3726 17.1257 25.0329 17.642 19.2754C17.9581 14.9354 19.5386 11.1627 22.3755 8.0335C24.7462 5.36488 29.2057 4.04481 32.2455 3.97833C40.7695 3.8335 44.3229 13.4064 44.5968 17.2122L48.5427 18.2806C47.6339 6.60897 39.5867 0.490601 31.8899 0.490601C24.6619 0.490601 17.9976 5.22242 15.3109 12.1599C11.6415 21.4075 14.0491 30.3037 18.5508 37.4192C18.1557 37.8822 17.9186 38.6989 17.9976 39.4801Z" fill="#636363"/>
</svg>
