<svg width="64" height="57" viewBox="0 0 64 57" fill="none" xmlns="http://www.w3.org/2000/svg">
<path d="M32.122 0.00866699C49.5784 0.00866699 63.7317 12.7656 63.7317 28.4998C63.7317 44.234 49.5784 56.9909 32.122 56.9909C14.6655 56.9909 0.512207 44.234 0.512207 28.4998C0.512207 12.7656 14.6655 0.00866699 32.122 0.00866699ZM25.8395 37.9921C26.3005 39.5235 26.2504 40.9552 25.7763 42.2467L25.6051 42.6741C25.5419 42.8189 25.4681 42.959 25.3996 43.092C25.0308 43.7805 24.5409 44.4216 23.9377 45.0151C22.099 46.8172 19.5334 47.501 18.4323 46.9264C17.2469 46.3044 17.837 43.7568 19.9706 41.7268C22.265 39.5472 25.555 38.144 25.555 38.144V38.1369L25.8395 37.9921ZM51.9465 12.2052C50.5188 7.14094 41.2071 5.47659 32.3959 8.29958C27.1566 9.97818 21.48 12.616 17.3997 16.0563C12.545 20.1424 11.7732 23.7038 12.0919 25.1924C13.2167 30.4419 21.1982 33.8751 24.4803 36.4227V36.4369C23.5136 36.8643 16.4303 40.0672 14.7708 43.3816C12.9928 46.8718 15.0474 49.3672 16.3908 49.6853C20.5396 50.7205 24.8069 48.8306 27.0986 45.7701C29.3113 42.7762 29.1164 38.9299 28.1628 37.0424C29.4694 36.7218 31.0077 36.5794 32.9833 36.7954C38.5177 37.3653 39.624 40.4993 39.3843 41.7814C39.1472 43.0611 38.0066 43.809 37.6089 44.0227C37.2138 44.2388 37.0952 44.3076 37.1321 44.4524C37.1716 44.6661 37.3718 44.6661 37.6853 44.6305C38.1199 44.5593 40.5723 43.5621 40.6908 41.138C40.8094 38.0752 37.5667 34.6586 31.8006 34.7275C29.4299 34.7655 27.9258 34.9435 26.8616 35.3353C26.7825 35.2284 26.7009 35.1572 26.585 35.086C23.0289 31.6314 16.4303 29.2097 16.7069 24.6155C16.786 22.9416 17.4577 18.5279 29.3508 13.1858C39.1103 8.80293 46.8969 10.0162 48.2403 12.6872C50.1711 16.4955 44.0889 23.5851 33.9342 24.6155C30.062 25.0072 28.0469 23.6563 27.5306 23.1553C26.9801 22.6211 26.9011 22.5855 26.7035 22.6947C26.3874 22.8372 26.585 23.3002 26.7035 23.5851C27.0196 24.2973 28.2445 25.5438 30.3808 26.1849C32.2352 26.7191 36.7818 27.0372 42.2344 25.1165C48.3562 22.982 53.1372 17.0321 51.7542 12.0462L51.9465 12.2052Z" fill="#636363"/>
</svg>
